# xmcd
#
# Track frame offsets:
#	150
#	14764
#	20212
#	35959
#	53597
#	69597
#	88157
#	105389
#	131481
#	148485
#	168958
#	182712
#	199181
#	209840
#	227451
#	242750
#
# Disc length: 3425 seconds
#
# Revision: 0
# Processed by: cddbd v1.5.2PL0 Copyright (c) Steve Scherf et al.
# Submitted via: EasyCDDAExtractor 16.0.0.1
#
DISCID=f20d5f10
DTITLE=Various Artist - Bossa Nova Baby
DYEAR=2013
DGENRE=
TTITLE0=Paula Santoro - The Girl From Ipanema
TTITLE1=Vanja Orico - O Nosso Amor
TTITLE2=Elizete Cardoso - Chega De Saudade
TTITLE3=Agostinho Dos Santos - Manha De Carnival (feat Luiz Bonfa)
TTITLE4=Roberto Menescal - O Barquinho
TTITLE5=Marcos Valle - Nova Bossa Nova
TTITLE6=Joyce - "Rio Bahia" - Rio Bahia (feat Dori Caymmi)
TTITLE7=Paula Santoro - Corcovado
TTITLE8=Grupo Cabana - Wave
TTITLE9=Brazuka Fina - Bossa Leblon
TTITLE10=Arthur Verocai - Filhos (with Ivan Lins)
TTITLE11=Simao Morto - How Insensitive
TTITLE12=Raf Vilar - Bossa me
TTITLE13=Sabrina Malheiros - It's Too Late
TTITLE14=Clara Morena - Meu Samba Torto (with Celso Fonesca)
TTITLE15=Xavier Osmir - Agua De Beber
EXTD=
EXTT0=
EXTT1=
EXTT2=
EXTT3=
EXTT4=
EXTT5=
EXTT6=
EXTT7=
EXTT8=
EXTT9=
EXTT10=
EXTT11=
EXTT12=
EXTT13=
EXTT14=
EXTT15=
PLAYORDER=
